<svg id="logo" xmlns="http://www.w3.org/2000/svg" viewBox="0 0 440.7 178.23">
    <g>
        <path d="M221.42,254.29v.23a36.51,36.51,0,0,1-73,0v-.23H130.77v33.07H115.15a12.77,12.77,0,0,0,0-14.7c-3-4.5-4.49-11.43-4.49-18.37H32.55c0,66.73,30.83,89.65,64.82,89.65,45.06,0,61.27-34.78,79.44-34.78,15,0,52.23,21.38,68.78,1.32,13-15.82,7.31-44.67,7.31-44.67l151.45-.12a11.52,11.52,0,0,0,8.51,5.34v2.9c-1.82.35-3.16,1.42-3.16,2.7,0,1.55,2,2.82,4.48,2.82s4.48-1.27,4.48-2.82c0-1.28-1.33-2.35-3.16-2.7V271a18,18,0,0,0,6-2,21.11,21.11,0,0,1,7.2-1.9v3.28c-1.83.36-3.16,1.43-3.16,2.7,0,1.56,2,2.83,4.48,2.83s4.48-1.27,4.48-2.83c0-1.27-1.34-2.34-3.17-2.7v-3.51a102.16,102.16,0,0,1,16.33.78v4c-1.83.36-3.16,1.42-3.16,2.7,0,1.56,2,2.83,4.48,2.83s4.48-1.27,4.48-2.83c0-1.28-1.34-2.34-3.16-2.7V268c8.41,1,15.36,2.19,16.25,1a9.61,9.61,0,0,0,2-5.34s4.75.33,4.75-9.42Z" transform="translate(-32.55 -165.71)" style="fill: #2d2b2d"/>
        <path d="M184.92,287.33a32.85,32.85,0,0,0,32.76-31H211.1a26.26,26.26,0,0,1-52.36,0h-6.58A32.85,32.85,0,0,0,184.92,287.33Z" transform="translate(-32.55 -165.71)" style="fill: #2d2b2d"/>
    </g>
    <g>
        <path d="M59.33,201.54c0-22.47,14.23-35.83,32.5-35.83a28.24,28.24,0,0,1,20.75,8.7l-6.51,7.85c-3.45-3.36-7.48-6-13.86-6-12.18,0-20.37,9.45-20.37,24.86,0,15.66,7.27,25.16,21,25.16,3.82,0,7.6-1.1,9.79-3V208.47H89.73v-10h23.86v30.28c-4.58,4.62-12.52,8.15-21.93,8.15C73.14,236.9,59.33,224.26,59.33,201.54Z" transform="translate(-32.55 -165.71)" style="fill: #2d2b2d"/>
        <path d="M140.09,205.53V167h12.18v39.48c0,15,5.59,19.87,13.9,19.87s14.2-4.92,14.2-19.87V167h11.71v38.56c0,22.55-10,31.37-25.91,31.37S140.09,228.08,140.09,205.53Z" transform="translate(-32.55 -165.71)" style="fill: #2d2b2d"/>
        <path d="M220.75,167h12.18v68.67H220.75Z" transform="translate(-32.55 -165.71)" style="fill: #2d2b2d"/>
        <path d="M275.77,177.22H256V167h51.82v10.25H288v58.42H275.77Z" transform="translate(-32.55 -165.71)" style="fill: #2d2b2d"/>
        <path d="M340,167h14.28l22.38,68.67H363.8L353.34,199.1c-2.18-7.26-4.2-15.1-6.21-22.64h-.42c-1.89,7.61-3.91,15.38-6.09,22.64l-10.54,36.54H317.64Zm-9.16,40.51h32.34V217H330.87Z" transform="translate(-32.55 -165.71)" style="fill: #2d2b2d"/>
        <path d="M395.68,167h23.14c14.28,0,25.29,5,25.29,20.37,0,14.76-11,21.46-25.29,21.46h-11v26.84H395.68Zm21.88,32.09c9.41,0,14.53-3.91,14.53-11.72s-5.12-10.62-14.53-10.62h-9.7v22.34Zm-1,6.49,8.82-7.27,21.44,37.36H433.1Z" transform="translate(-32.55 -165.71)" style="fill: #2d2b2d"/>
    </g>
    <g>
        <path d="M267.72,274.9H278c7.61,0,12.49,2.89,12.49,9.21,0,3.95-2,7.11-5.86,8.26v.23c4.91.83,8.2,3.9,8.2,9.15,0,7.29-5.53,11-14.1,11h-11Zm9.19,16.68c7.77,0,10.92-2.74,10.92-7.21,0-5.31-3.66-7.26-10.61-7.26h-6.85v14.47Zm1.1,19c7.54,0,12.17-2.72,12.17-8.79,0-5.45-4.43-8-12.17-8h-7.64v16.83Z" transform="translate(-32.55 -165.71)" style="fill: #2d2b2d"/>
        <path d="M304.1,299c0-9.24,5.76-14.55,12.39-14.55s12.4,5.31,12.4,14.55-5.76,14.44-12.4,14.44S304.1,308.17,304.1,299Zm22.12,0c0-7.27-4.15-12.31-9.73-12.31s-9.73,5-9.73,12.31,4.16,12.2,9.73,12.2S326.22,306.31,326.22,299Z" transform="translate(-32.55 -165.71)" style="fill: #2d2b2d"/>
        <path d="M340.61,299c0-9.24,5.76-14.55,12.39-14.55s12.4,5.31,12.4,14.55-5.76,14.44-12.4,14.44S340.61,308.17,340.61,299Zm22.12,0c0-7.27-4.15-12.31-9.73-12.31s-9.72,5-9.72,12.31,4.15,12.2,9.72,12.2S362.73,306.31,362.73,299Z" transform="translate(-32.55 -165.71)" style="fill: #2d2b2d"/>
        <path d="M378.87,271.43h2.52v30.48h.12l13.63-16.73h2.93l-9,10.93,10.5,16.68h-2.83L387.58,298l-6.19,7.27v7.52h-2.52Z" transform="translate(-32.55 -165.71)" style="fill: #2d2b2d"/>
    </g>
</svg>
