<?xml version="1.0" encoding="UTF-8"?>
<svg xmlns="http://www.w3.org/2000/svg" width="32pt" height="32pt" viewBox="0 0 32 32" version="1.1">
<g id="surface1">
<path style=" stroke:none;fill-rule:nonzero;fill:rgb(13.72549%,12.156863%,12.54902%);fill-opacity:1;" d="M 16.535156 17.761719 L 16.546875 17.769531 C 17.804688 18.226562 18.449219 19.613281 17.992188 20.867188 C 17.535156 22.125 16.148438 22.769531 14.894531 22.3125 L 14.878906 22.308594 L 14.480469 23.40625 L 16.539062 24.152344 L 16.183594 25.125 C 15.980469 24.832031 15.613281 24.699219 15.269531 24.789062 C 14.921875 24.875 14.457031 24.8125 14.023438 24.652344 L 12.253906 29.515625 C 16.40625 31.03125 18.53125 29.632812 19.308594 27.519531 C 20.328125 24.714844 18.527344 22.917969 18.941406 21.785156 C 19.28125 20.851562 21.453125 19.019531 20.582031 17.535156 C 19.890625 16.363281 17.96875 16.066406 17.96875 16.066406 L 21.390625 6.640625 C 21.617188 6.589844 21.8125 6.4375 21.914062 6.230469 L 22.097656 6.296875 C 22.078125 6.417969 22.113281 6.523438 22.191406 6.554688 C 22.289062 6.589844 22.414062 6.492188 22.46875 6.339844 C 22.523438 6.1875 22.492188 6.03125 22.394531 5.996094 C 22.316406 5.96875 22.21875 6.027344 22.15625 6.132812 L 21.972656 6.066406 C 22.003906 5.929688 22.007812 5.789062 21.988281 5.652344 C 21.972656 5.484375 21.988281 5.320312 22.03125 5.160156 L 22.238281 5.234375 C 22.21875 5.355469 22.253906 5.464844 22.332031 5.492188 C 22.429688 5.527344 22.554688 5.429688 22.609375 5.277344 C 22.664062 5.125 22.632812 4.972656 22.535156 4.9375 C 22.457031 4.90625 22.359375 4.964844 22.296875 5.070312 L 22.078125 4.992188 C 22.191406 4.648438 22.332031 4.316406 22.496094 3.992188 L 22.746094 4.085938 C 22.726562 4.207031 22.761719 4.3125 22.84375 4.34375 C 22.941406 4.378906 23.066406 4.28125 23.121094 4.128906 C 23.175781 3.976562 23.140625 3.820312 23.046875 3.785156 C 22.964844 3.757812 22.871094 3.816406 22.804688 3.921875 L 22.574219 3.835938 C 22.832031 3.335938 23.058594 2.929688 23.003906 2.847656 C 22.9375 2.738281 22.835938 2.648438 22.71875 2.597656 C 22.71875 2.597656 22.847656 2.308594 22.238281 2.089844 Z M 16.535156 17.761719 "/>
<path style=" stroke:none;fill-rule:nonzero;fill:rgb(13.72549%,12.156863%,12.54902%);fill-opacity:1;" d="M 17.761719 20.785156 C 18.15625 19.699219 17.632812 18.5 16.574219 18.042969 L 16.425781 18.453125 C 17.257812 18.828125 17.65625 19.777344 17.347656 20.632812 C 17.035156 21.488281 16.117188 21.960938 15.242188 21.710938 L 15.089844 22.121094 C 16.195312 22.453125 17.367188 21.867188 17.761719 20.785156 Z M 17.761719 20.785156 "/>
<path style=" stroke:none;fill-rule:nonzero;fill:rgb(13.72549%,12.156863%,12.54902%);fill-opacity:1;" d="M 16.535156 17.761719 L 16.519531 17.757812 C 15.265625 17.300781 13.875 17.949219 13.417969 19.203125 C 12.960938 20.457031 13.609375 21.847656 14.863281 22.304688 L 14.878906 22.304688 L 14.480469 23.402344 L 12.421875 22.652344 L 12.066406 23.625 C 12.414062 23.53125 12.777344 23.664062 12.980469 23.957031 C 13.195312 24.246094 13.59375 24.496094 14.023438 24.652344 L 12.253906 29.515625 C 8.101562 28.003906 7.371094 25.570312 8.144531 23.449219 C 9.164062 20.644531 11.695312 20.425781 12.109375 19.289062 C 12.449219 18.355469 11.960938 15.558594 13.585938 14.980469 C 14.863281 14.527344 16.527344 15.535156 16.527344 15.535156 L 19.96875 6.113281 C 19.824219 5.929688 19.773438 5.6875 19.828125 5.460938 L 19.648438 5.394531 C 19.585938 5.5 19.488281 5.558594 19.410156 5.53125 C 19.3125 5.496094 19.277344 5.34375 19.335938 5.1875 C 19.390625 5.035156 19.515625 4.9375 19.613281 4.976562 C 19.691406 5.003906 19.726562 5.109375 19.707031 5.230469 L 19.890625 5.296875 C 19.957031 5.175781 20.042969 5.0625 20.148438 4.972656 C 20.265625 4.855469 20.359375 4.714844 20.429688 4.566406 L 20.222656 4.492188 C 20.160156 4.597656 20.0625 4.65625 19.984375 4.628906 C 19.886719 4.59375 19.855469 4.4375 19.910156 4.285156 C 19.964844 4.132812 20.089844 4.035156 20.1875 4.070312 C 20.265625 4.101562 20.304688 4.207031 20.285156 4.328125 L 20.503906 4.410156 C 20.636719 4.074219 20.742188 3.726562 20.824219 3.375 L 20.574219 3.285156 C 20.507812 3.390625 20.414062 3.449219 20.332031 3.417969 C 20.234375 3.382812 20.203125 3.230469 20.257812 3.078125 C 20.3125 2.921875 20.4375 2.828125 20.535156 2.863281 C 20.617188 2.894531 20.652344 3 20.632812 3.121094 L 20.863281 3.207031 C 20.988281 2.660156 21.078125 2.199219 21.167969 2.171875 C 21.289062 2.132812 21.421875 2.132812 21.542969 2.171875 C 21.542969 2.171875 21.632812 1.867188 22.238281 2.089844 Z M 16.535156 17.761719 "/>
<path style=" stroke:none;fill-rule:nonzero;fill:rgb(13.72549%,12.156863%,12.54902%);fill-opacity:1;" d="M 13.652344 19.285156 C 14.050781 18.207031 15.21875 17.621094 16.320312 17.949219 L 16.171875 18.359375 C 15.292969 18.113281 14.375 18.582031 14.066406 19.4375 C 13.753906 20.292969 14.15625 21.246094 14.984375 21.617188 L 14.835938 22.027344 C 13.777344 21.570312 13.261719 20.367188 13.652344 19.285156 Z M 13.652344 19.285156 "/>
</g>
</svg>
