<svg xmlns="http://www.w3.org/2000/svg" viewBox="0 0 113.19 113.19"><title>instagram</title><g id="OBJECTS"><path d="M91.16,3.2H22A18.84,18.84,0,0,0,3.2,22V91.17A18.84,18.84,0,0,0,22,110H91.16A18.85,18.85,0,0,0,110,91.17V22A18.85,18.85,0,0,0,91.16,3.2ZM73.41,56.6A16.82,16.82,0,1,1,56.59,39.78,16.83,16.83,0,0,1,73.41,56.6Zm.29-33.35a4,4,0,0,1,4-3.94h9.82a4,4,0,0,1,3.94,3.94v9.82a4,4,0,0,1-3.94,4H77.65a4,4,0,0,1-4-4ZM91.16,97.17H22a6,6,0,0,1-6-6V56.6H31.23A25.36,25.36,0,1,0,82,56.6H97.17V91.17A6,6,0,0,1,91.16,97.17Z" style="fill:currentColor"/></g></svg>
