<svg xmlns="http://www.w3.org/2000/svg" viewBox="0 0 113.19 113.19"><title>soundcloud</title><g id="OBJECTS"><path d="M40.09,79.3H44.8V42.74a18.67,18.67,0,0,0-4.26-.5h-.45Z" style="fill:#5a6270"/><path d="M32.63,79.3h5V42.47a18.6,18.6,0,0,0-5,1.54Z" style="fill:#5a6270"/><path d="M47.23,79.3h4.38v-38a22.3,22.3,0,0,0-2.37,3.08,20.3,20.3,0,0,0-2-.92Z" style="fill:#5a6270"/><path d="M26.15,79.3H30.2V45.4a18.33,18.33,0,0,0-4.05,3.71Z" style="fill:#5a6270"/><path d="M58.42,36.2A22.58,22.58,0,0,0,54,39V79.3h4.38Z" style="fill:#5a6270"/><path d="M10.09,55.73a12,12,0,0,0-2.76,1.73v19a12.36,12.36,0,0,0,2.76,1.74Z" style="fill:#5a6270"/><path d="M97.3,53.27A13,13,0,0,0,91,54.88a22.7,22.7,0,0,0-30.18-19.7V79.3H97.3a13,13,0,1,0,0-26Z" style="fill:#5a6270"/><path d="M16.9,54.73a13.28,13.28,0,0,0-1.68-.12,12,12,0,0,0-2.7.3V79a12,12,0,0,0,2.7.3H16.9Z" style="fill:#5a6270"/><path d="M19.33,79.3h4.38V53a18.7,18.7,0,0,0-1.3,3.91,12.18,12.18,0,0,0-3.08-1.6Z" style="fill:#5a6270"/><path d="M4.9,60.18a12.32,12.32,0,0,0,0,13.55Z" style="fill:currentColor"/></g></svg>
