<svg xmlns="http://www.w3.org/2000/svg" viewBox="0 0 113.19 113.19"><title>soundcloud</title><g id="OBJECTS"><path d="M97.3,79.3H60.85V35.18c13.71-5.12,29.4,5.18,30.18,19.7a13,13,0,0,1,6.27-1.61C114.32,53.34,114.32,79.23,97.3,79.3ZM54,79.3h4.38V36.2A22.58,22.58,0,0,0,54,39Zm-34.71-24v24h4.38V53a18.7,18.7,0,0,0-1.3,3.91A12.35,12.35,0,0,0,19.33,55.32Zm-12,21.13a12.14,12.14,0,0,0,2.76,1.74V55.73a11.76,11.76,0,0,0-2.76,1.73Zm25.3,2.85h5V42.47a18.6,18.6,0,0,0-5,1.54Zm14.6-35.81V79.3h4.38v-38a21.55,21.55,0,0,0-2.37,3.08A20.3,20.3,0,0,0,47.23,43.49ZM12.52,54.91V79a17.15,17.15,0,0,0,4.38.3V54.73A12.16,12.16,0,0,0,12.52,54.91ZM40.09,79.3h4.7V42.74a18.31,18.31,0,0,0-4.7-.49Zm-14-30.19V79.3H30.2V45.4A18.61,18.61,0,0,0,26.14,49.11ZM4.9,73.73V60.18A12.42,12.42,0,0,0,4.9,73.73Z" style="fill:currentColor"/></g></svg>
