<svg xmlns="http://www.w3.org/2000/svg" viewBox="0 0 113.19 113.19"><title>spotify</title><g id="OBJECTS"><path d="M56.6,0a56.6,56.6,0,1,0,56.59,56.6A56.6,56.6,0,0,0,56.6,0ZM80.35,82a4.3,4.3,0,0,1-3.66,2,4.25,4.25,0,0,1-2.23-.64,38.77,38.77,0,0,0-17.87-4.9,38.63,38.63,0,0,0-17.87,4.91,4.28,4.28,0,0,1-4.47-7.3A46.86,46.86,0,0,1,56.59,70a46.88,46.88,0,0,1,22.35,6.17A4.29,4.29,0,0,1,80.35,82ZM90.43,67.49a5.72,5.72,0,0,1-4.87,2.72,5.6,5.6,0,0,1-3-.85c-.11-.06-11.89-7.13-26-7.13s-25.86,7.06-26,7.13a5.71,5.71,0,1,1-6-9.72c.59-.36,14.55-8.83,32-8.83s31.38,8.47,32,8.83A5.71,5.71,0,0,1,90.43,67.49ZM94.77,53.9A7.1,7.1,0,0,1,91,52.84c-.14-.08-15.75-9.45-34.44-9.45s-34.3,9.37-34.45,9.46a7.13,7.13,0,0,1-7.46-12.16c.76-.48,19.07-11.58,41.91-11.58s41.15,11.1,41.92,11.58A7.13,7.13,0,0,1,94.77,53.9Z" style="fill:currentColor"/></g></svg>
